# Blender v2.93.6 OBJ File: ''
# www.blender.org
mtllib CoordinateSystem.mtl
o Cylinder
v 0.000000 2.000000 -0.100000
v 0.019509 2.000000 -0.098079
v 0.038268 2.000000 -0.092388
v 0.055557 2.000000 -0.083147
v 0.070711 2.000000 -0.070711
v 0.083147 2.000000 -0.055557
v 0.092388 2.000000 -0.038268
v 0.098079 2.000000 -0.019509
v 0.100000 2.000000 0.000000
v 0.098079 2.000000 0.019509
v 0.092388 2.000000 0.038268
v 0.083147 2.000000 0.055557
v 0.070711 2.000000 0.070711
v 0.055557 2.000000 0.083147
v 0.038268 2.000000 0.092388
v 0.019509 2.000000 0.098079
v -0.000000 0.000000 0.100000
v -0.000000 2.000000 0.100000
v -0.019509 0.000000 0.098079
v -0.019509 2.000000 0.098079
v -0.038268 0.000000 0.092388
v -0.038268 2.000000 0.092388
v -0.055557 0.000000 0.083147
v -0.055557 2.000000 0.083147
v -0.070711 0.000000 0.070711
v -0.070711 2.000000 0.070711
v -0.083147 0.000000 0.055557
v -0.083147 2.000000 0.055557
v -0.092388 0.000000 0.038268
v -0.092388 2.000000 0.038268
v -0.098079 0.000000 0.019509
v -0.098079 2.000000 0.019509
v -0.100000 0.000000 -0.000000
v -0.100000 2.000000 -0.000000
v -0.098079 2.000000 -0.019509
v -0.092388 2.000000 -0.038268
v -0.083147 2.000000 -0.055557
v -0.070711 2.000000 -0.070711
v -0.055557 2.000000 -0.083147
v -0.038268 2.000000 -0.092388
v -0.019509 2.000000 -0.098079
v 0.000000 0.100000 -2.000000
v 0.019509 0.098079 -2.000000
v 0.038268 0.092388 -2.000000
v 0.055557 0.083147 -2.000000
v 0.070711 0.070711 -2.000000
v 0.083147 0.055557 -2.000000
v 0.092388 0.038268 -2.000000
v 0.098079 0.019509 -2.000000
v 0.100000 0.000000 -2.000000
v 0.098079 -0.019509 -2.000000
v 0.092388 -0.038268 -2.000000
v 0.083147 -0.055557 -2.000000
v 0.070711 -0.070711 -2.000000
v 0.055557 -0.083147 -2.000000
v 0.038268 -0.092388 -2.000000
v 0.019509 -0.098078 -2.000000
v -0.000000 -0.100000 -2.000000
v -0.000000 -0.100000 0.000000
v -0.019509 -0.098078 -2.000000
v -0.019509 -0.098078 0.000000
v -0.038268 -0.092388 -2.000000
v -0.038268 -0.092388 0.000000
v -0.055557 -0.083147 -2.000000
v -0.055557 -0.083147 0.000000
v -0.070711 -0.070711 -2.000000
v -0.070711 -0.070711 0.000000
v -0.083147 -0.055557 -2.000000
v -0.083147 -0.055557 0.000000
v -0.092388 -0.038268 -2.000000
v -0.092388 -0.038268 0.000000
v -0.098079 -0.019509 -2.000000
v -0.098079 -0.019509 0.000000
v -0.100000 0.000000 -2.000000
v -0.100000 0.000000 0.000000
v -0.098079 0.019509 -2.000000
v -0.092388 0.038268 -2.000000
v -0.083147 0.055557 -2.000000
v -0.070711 0.070711 -2.000000
v -0.055557 0.083147 -2.000000
v -0.038268 0.092388 -2.000000
v -0.019509 0.098079 -2.000000
v 0.000000 0.100000 -0.100000
v -0.070711 0.070711 -0.070711
v 0.019509 0.098079 -0.098079
v -0.055557 0.083147 -0.083147
v 0.038268 0.092388 -0.092388
v 0.055557 0.083147 -0.083147
v -0.038268 0.092388 -0.092388
v 0.070711 0.070711 -0.070711
v -0.019509 0.098079 -0.098079
v -0.098079 0.019509 -0.019509
v -0.092388 0.038268 -0.038268
v -0.083147 0.055557 -0.055557
v 2.000000 0.000000 -0.100000
v 2.000000 -0.019509 -0.098079
v 2.000000 -0.038268 -0.092388
v 2.000000 -0.055557 -0.083147
v 2.000000 -0.070711 -0.070711
v 2.000000 -0.083147 -0.055557
v 2.000000 -0.092388 -0.038268
v 2.000000 -0.098078 -0.019509
v 0.000000 -0.100000 0.000000
v 2.000000 -0.100000 0.000000
v 0.000000 -0.098078 0.019509
v 2.000000 -0.098078 0.019509
v 0.000000 -0.092388 0.038268
v 2.000000 -0.092388 0.038268
v 0.000000 -0.083147 0.055557
v 2.000000 -0.083147 0.055557
v 0.000000 -0.070711 0.070711
v 2.000000 -0.070711 0.070711
v 0.000000 -0.055557 0.083147
v 2.000000 -0.055557 0.083147
v 0.000000 -0.038268 0.092388
v 2.000000 -0.038268 0.092388
v 0.000000 -0.019509 0.098079
v 2.000000 -0.019509 0.098079
v 0.000000 0.000000 0.100000
v 2.000000 0.000000 0.100000
v 2.000000 0.019509 0.098079
v 2.000000 0.038268 0.092388
v 2.000000 0.055557 0.083147
v 2.000000 0.070711 0.070711
v 2.000000 0.083147 0.055557
v 2.000000 0.092388 0.038268
v 2.000000 0.098079 0.019509
v 2.000000 0.100000 -0.000000
v 2.000000 0.098079 -0.019509
v 2.000000 0.092388 -0.038268
v 2.000000 0.083147 -0.055557
v 2.000000 0.070711 -0.070711
v 2.000000 0.055557 -0.083147
v 2.000000 0.038268 -0.092388
v 2.000000 0.019509 -0.098079
v 0.098079 0.098079 0.019509
v 0.098079 0.098079 0.019509
v 0.000000 0.000000 0.000000
v 0.083147 0.083147 -0.055557
v 0.083147 0.083147 -0.055557
v 0.100000 0.100000 0.000000
v 0.100000 0.100000 -0.000000
v 0.100000 0.000000 -0.100000
v 0.092388 0.092388 -0.038268
v 0.092388 0.092388 -0.038268
v 0.098079 0.098079 -0.019509
v 0.098079 -0.019509 -0.098079
v 0.098079 0.098079 -0.019509
v 0.083147 0.055557 -0.083147
v 0.092388 -0.038268 -0.092388
v 0.092388 0.038268 -0.092388
v 0.083147 -0.055557 -0.083147
v 0.098079 0.019509 -0.098079
v 0.070711 -0.070711 -0.070711
v 0.092388 0.092388 0.038268
v 0.092388 0.092388 0.038268
v 0.083147 0.083147 0.055557
v 0.083147 0.083147 0.055557
v 0.055557 -0.083147 -0.055557
v 0.070711 0.070711 0.070711
v 0.070711 0.070711 0.070711
v 0.055557 0.055557 0.083147
v 0.055557 0.055557 0.083147
v 0.038268 -0.092388 -0.038268
v 0.038268 0.038268 0.092388
v 0.038268 0.038268 0.092388
v 0.019509 0.019509 0.098079
v 0.019509 -0.098078 -0.019509
v 0.019509 0.019509 0.098079
v 0.000000 0.000000 0.100000
v 0.000000 0.000000 0.100000
v 0.000000 -0.100000 -0.000000
v 0.000000 -0.100000 0.000000
vt 1.000000 0.525000
vt 1.000000 1.000000
vt 0.968750 1.000000
vt 0.968750 0.524520
vt 0.937500 1.000000
vt 0.937500 0.523097
vt 0.906250 1.000000
vt 0.906250 0.520787
vt 0.875000 1.000000
vt 0.875000 0.517678
vt 0.843750 1.000000
vt 0.843750 0.520787
vt 0.812500 1.000000
vt 0.812500 0.523097
vt 0.812500 0.523097
vt 0.843750 0.520787
vt 0.781250 1.000000
vt 0.781250 0.524520
vt 0.781250 0.524520
vt 0.750000 1.000000
vt 0.750000 0.525000
vt 0.750000 0.525000
vt 0.718750 1.000000
vt 0.718750 0.524520
vt 0.687500 1.000000
vt 0.687500 0.523097
vt 0.718750 0.524520
vt 0.656250 1.000000
vt 0.656250 0.520787
vt 0.687500 0.523097
vt 0.625000 1.000000
vt 0.625000 0.517678
vt 0.656250 0.520787
vt 0.593750 1.000000
vt 0.593750 0.513889
vt 0.593750 0.513889
vt 0.625000 0.517678
vt 0.562500 1.000000
vt 0.562500 0.509567
vt 0.531250 1.000000
vt 0.531250 0.504877
vt 0.562500 0.509567
vt 0.500000 1.000000
vt 0.500000 0.500000
vt 0.500000 0.500000
vt 0.500000 0.500000
vt 0.531250 0.504877
vt 0.468750 1.000000
vt 0.468750 0.500000
vt 0.437500 1.000000
vt 0.437500 0.500000
vt 0.406250 1.000000
vt 0.406250 0.500000
vt 0.375000 1.000000
vt 0.375000 0.500000
vt 0.343750 1.000000
vt 0.343750 0.500000
vt 0.312500 1.000000
vt 0.312500 0.500000
vt 0.281250 1.000000
vt 0.281250 0.500000
vt 0.250000 1.000000
vt 0.250000 0.500000
vt 0.250000 0.500000
vt 0.218750 1.000000
vt 0.218750 0.504877
vt 0.187500 1.000000
vt 0.187500 0.509567
vt 0.156250 1.000000
vt 0.156250 0.513889
vt 0.125000 1.000000
vt 0.125000 0.517678
vt 0.093750 1.000000
vt 0.093750 0.520787
vt 0.062500 1.000000
vt 0.062500 0.523097
vt 0.050447 0.383337
vt 0.028269 0.341844
vt 0.014612 0.296822
vt 0.010000 0.250000
vt 0.014612 0.203178
vt 0.028269 0.158156
vt 0.050447 0.116663
vt 0.080294 0.080294
vt 0.116663 0.050447
vt 0.158156 0.028269
vt 0.203178 0.014612
vt 0.250000 0.010000
vt 0.296822 0.014612
vt 0.341844 0.028269
vt 0.383337 0.050447
vt 0.419706 0.080294
vt 0.449553 0.116663
vt 0.471731 0.158156
vt 0.485388 0.203178
vt 0.490000 0.250000
vt 0.485388 0.296822
vt 0.471731 0.341844
vt 0.449553 0.383337
vt 0.419706 0.419706
vt 0.383337 0.449553
vt 0.341844 0.471731
vt 0.296822 0.485388
vt 0.250000 0.490000
vt 0.203178 0.485388
vt 0.158156 0.471731
vt 0.116663 0.449553
vt 0.080294 0.419706
vt 0.031250 1.000000
vt 0.031250 0.524520
vt 0.000000 1.000000
vt 0.000000 0.525000
vt 0.750000 0.010000
vt 0.703178 0.014612
vt 0.658156 0.028269
vt 0.616663 0.050447
vt 0.580294 0.080294
vt 0.550447 0.116663
vt 0.528269 0.158156
vt 0.514612 0.203178
vt 0.510000 0.250000
vt 0.750000 0.250000
vt 0.750000 0.010000
vt 0.968750 0.975480
vt 0.968750 0.500000
vt 1.000000 0.500000
vt 1.000000 0.975000
vt 0.937500 0.976903
vt 0.937500 0.500000
vt 0.906250 0.979213
vt 0.906250 0.500000
vt 0.875000 0.982322
vt 0.875000 0.500000
vt 0.843750 0.979213
vt 0.843750 0.500000
vt 0.812500 0.976903
vt 0.812500 0.500000
vt 0.781250 0.975480
vt 0.781250 0.500000
vt 0.750000 0.975000
vt 0.750000 0.500000
vt 0.718750 0.500000
vt 0.718750 0.975480
vt 0.687500 0.976903
vt 0.687500 0.500000
vt 0.656250 0.979213
vt 0.656250 0.500000
vt 0.625000 0.982322
vt 0.625000 0.500000
vt 0.593750 0.986111
vt 0.593750 0.500000
vt 0.562500 0.990433
vt 0.562500 0.500000
vt 0.531250 0.995123
vt 0.531250 0.500000
vt 0.500000 1.000000
vt 0.500000 0.500000
vt 0.500000 1.000000
vt 0.500000 1.000000
vt 0.468750 1.000000
vt 0.468750 0.500000
vt 0.437500 1.000000
vt 0.437500 0.500000
vt 0.406250 1.000000
vt 0.406250 0.500000
vt 0.375000 1.000000
vt 0.375000 0.500000
vt 0.343750 1.000000
vt 0.343750 0.500000
vt 0.312500 1.000000
vt 0.312500 0.500000
vt 0.281250 1.000000
vt 0.281250 0.500000
vt 0.250000 1.000000
vt 0.250000 1.000000
vt 0.250000 0.500000
vt 0.218750 0.995123
vt 0.218750 0.500000
vt 0.187500 0.990433
vt 0.187500 0.500000
vt 0.156250 0.986111
vt 0.156250 0.500000
vt 0.125000 0.982322
vt 0.125000 0.500000
vt 0.093750 0.979213
vt 0.093750 0.500000
vt 0.062500 0.976903
vt 0.062500 0.500000
vt 0.010000 0.250000
vt 0.014612 0.296822
vt 0.028269 0.341844
vt 0.050447 0.383337
vt 0.080294 0.419706
vt 0.116663 0.449553
vt 0.158156 0.471731
vt 0.203178 0.485388
vt 0.250000 0.490000
vt 0.250000 0.490000
vt 0.250000 0.250000
vt 0.031250 0.975480
vt 0.031250 0.500000
vt 0.000000 0.975000
vt 0.000000 0.500000
vt 0.703178 0.485388
vt 0.750000 0.490000
vt 0.796822 0.485388
vt 0.841844 0.471731
vt 0.883337 0.449553
vt 0.919706 0.419706
vt 0.949553 0.383337
vt 0.971731 0.341844
vt 0.985388 0.296822
vt 0.990000 0.250000
vt 0.985388 0.203178
vt 0.971731 0.158156
vt 0.949553 0.116663
vt 0.919706 0.080294
vt 0.883337 0.050447
vt 0.841844 0.028269
vt 0.796822 0.014612
vt 0.750000 0.010000
vt 0.703178 0.014612
vt 0.658156 0.028269
vt 0.616663 0.050447
vt 0.580294 0.080294
vt 0.550447 0.116663
vt 0.528269 0.158156
vt 0.514612 0.203178
vt 0.510000 0.250000
vt 0.514612 0.296822
vt 0.528269 0.341844
vt 0.550447 0.383337
vt 0.580294 0.419706
vt 0.616663 0.449553
vt 0.658156 0.471731
vt 1.000000 0.525000
vt 1.000000 1.000000
vt 0.968750 1.000000
vt 0.968750 0.524520
vt 0.937500 1.000000
vt 0.937500 0.523097
vt 0.906250 1.000000
vt 0.906250 0.520787
vt 0.875000 1.000000
vt 0.875000 0.517678
vt 0.843750 1.000000
vt 0.843750 0.513889
vt 0.812500 1.000000
vt 0.812500 0.509567
vt 0.781250 1.000000
vt 0.781250 0.504877
vt 0.750000 1.000000
vt 0.750000 0.500000
vt 0.750000 0.500000
vt 0.718750 1.000000
vt 0.718750 0.500000
vt 0.687500 1.000000
vt 0.687500 0.500000
vt 0.656250 1.000000
vt 0.656250 0.500000
vt 0.625000 1.000000
vt 0.625000 0.500000
vt 0.593750 1.000000
vt 0.593750 0.500000
vt 0.562500 1.000000
vt 0.562500 0.500000
vt 0.531250 1.000000
vt 0.531250 0.500000
vt 0.500000 1.000000
vt 0.500000 0.500000
vt 0.468750 1.000000
vt 0.468750 0.504877
vt 0.468750 0.504877
vt 0.437500 1.000000
vt 0.437500 0.509567
vt 0.437500 0.509567
vt 0.406250 1.000000
vt 0.406250 0.513889
vt 0.406250 0.513889
vt 0.375000 1.000000
vt 0.375000 0.517678
vt 0.375000 0.517678
vt 0.343750 1.000000
vt 0.343750 0.520787
vt 0.343750 0.520787
vt 0.312500 1.000000
vt 0.312500 0.523097
vt 0.312500 0.523097
vt 0.281250 1.000000
vt 0.281250 0.524520
vt 0.281250 0.524520
vt 0.250000 1.000000
vt 0.250000 0.525000
vt 0.250000 0.525000
vt 0.218750 1.000000
vt 0.218750 0.524520
vt 0.218750 0.524520
vt 0.187500 1.000000
vt 0.187500 0.523097
vt 0.187500 0.523097
vt 0.156250 1.000000
vt 0.156250 0.520787
vt 0.156250 0.520787
vt 0.125000 1.000000
vt 0.125000 0.517678
vt 0.156250 0.520787
vt 0.093750 1.000000
vt 0.093750 0.520787
vt 0.062500 1.000000
vt 0.062500 0.523097
vt 0.250000 0.010000
vt 0.296822 0.014612
vt 0.341844 0.028269
vt 0.383337 0.050447
vt 0.419706 0.080294
vt 0.449553 0.116663
vt 0.471731 0.158156
vt 0.485388 0.203178
vt 0.490000 0.250000
vt 0.485388 0.296822
vt 0.471731 0.341844
vt 0.449553 0.383337
vt 0.419706 0.419706
vt 0.383337 0.449553
vt 0.341844 0.471731
vt 0.296822 0.485388
vt 0.250000 0.490000
vt 0.203178 0.485388
vt 0.158156 0.471731
vt 0.116663 0.449553
vt 0.080294 0.419706
vt 0.050447 0.383337
vt 0.028269 0.341844
vt 0.014612 0.296822
vt 0.010000 0.250000
vt 0.014612 0.203178
vt 0.028269 0.158156
vt 0.050447 0.116663
vt 0.080294 0.080294
vt 0.116663 0.050447
vt 0.158156 0.028269
vt 0.203178 0.014612
vt 0.031250 1.000000
vt 0.031250 0.524520
vt 0.000000 1.000000
vt 0.000000 0.525000
vt 0.990000 0.250000
vt 0.990000 0.250000
vt 0.990000 0.250000
vt 0.985388 0.203178
vt 0.971731 0.158156
vt 0.949553 0.116663
vt 0.919706 0.080294
vt 0.883337 0.050447
vt 0.841844 0.028269
vt 0.796822 0.014612
vt 0.750000 0.010000
vt 0.750000 0.010000
vt 0.990000 0.250000
vn 0.0980 0.0000 -0.9952
vn 0.2903 0.0000 -0.9569
vn 0.4714 0.0000 -0.8819
vn 0.6344 0.0000 -0.7730
vn 0.7730 0.0000 -0.6344
vn 0.8819 0.0000 -0.4714
vn 0.9569 -0.0000 -0.2903
vn 0.9952 0.0000 -0.0980
vn 0.9952 0.0000 0.0980
vn 0.9569 0.0000 0.2903
vn 0.8819 0.0000 0.4714
vn 0.7730 -0.0000 0.6344
vn 0.6344 0.0000 0.7730
vn 0.4714 0.0000 0.8819
vn 0.2903 0.0000 0.9569
vn 0.0980 0.0000 0.9952
vn -0.0980 0.0000 0.9952
vn -0.2903 0.0000 0.9569
vn -0.4714 0.0000 0.8819
vn -0.6344 0.0000 0.7730
vn -0.7730 0.0000 0.6344
vn -0.8819 0.0000 0.4714
vn -0.9569 0.0000 0.2903
vn -0.9952 -0.0000 0.0980
vn -0.9952 0.0000 -0.0980
vn -0.9569 0.0000 -0.2903
vn -0.8819 0.0000 -0.4714
vn -0.7730 0.0000 -0.6344
vn -0.6344 0.0000 -0.7730
vn -0.4714 0.0000 -0.8819
vn 0.0000 1.0000 -0.0000
vn -0.2903 0.0000 -0.9569
vn -0.0980 0.0000 -0.9952
vn 0.0000 -1.0000 0.0000
vn 0.0980 0.9952 0.0000
vn 0.2903 0.9569 0.0000
vn 0.4714 0.8819 0.0000
vn 0.6344 0.7730 0.0000
vn 0.7730 0.6344 0.0000
vn 0.8819 0.4714 0.0000
vn 0.9569 0.2903 0.0000
vn 0.9952 0.0980 0.0000
vn 0.9952 -0.0980 0.0000
vn 0.9569 -0.2903 0.0000
vn 0.8819 -0.4714 0.0000
vn 0.7730 -0.6344 0.0000
vn 0.6344 -0.7730 0.0000
vn 0.4714 -0.8819 0.0000
vn 0.2903 -0.9569 0.0000
vn 0.0980 -0.9952 0.0000
vn -0.0980 -0.9952 0.0000
vn -0.2903 -0.9569 0.0000
vn -0.4714 -0.8819 0.0000
vn -0.6344 -0.7730 0.0000
vn -0.7730 -0.6344 0.0000
vn -0.8819 -0.4714 0.0000
vn -0.9569 -0.2903 0.0000
vn -0.9952 -0.0980 0.0000
vn -0.9952 0.0980 0.0000
vn -0.9569 0.2903 0.0000
vn -0.8819 0.4714 0.0000
vn -0.7730 0.6344 0.0000
vn -0.6344 0.7730 0.0000
vn -0.4714 0.8819 0.0000
vn 0.0000 0.0000 1.0000
vn -0.2903 0.9569 0.0000
vn -0.0980 0.9952 0.0000
vn 0.0000 0.0000 -1.0000
vn 0.0000 -0.0980 -0.9952
vn 0.0000 -0.2903 -0.9569
vn 0.0000 -0.4714 -0.8819
vn 0.0000 -0.6344 -0.7730
vn 0.0000 -0.7730 -0.6344
vn 0.0000 -0.8819 -0.4714
vn 0.0000 -0.9569 -0.2903
vn 0.0000 -0.9952 -0.0980
vn 0.0000 -0.9952 0.0980
vn 0.0000 -0.9569 0.2903
vn 0.0000 -0.8819 0.4714
vn 0.0000 -0.7730 0.6344
vn 0.0000 -0.6344 0.7730
vn 0.0000 -0.4714 0.8819
vn 0.0000 -0.2903 0.9569
vn 0.0000 -0.0980 0.9952
vn 0.0000 0.0980 0.9952
vn 0.0000 0.2903 0.9569
vn -0.0000 0.4714 0.8819
vn 0.0000 0.6344 0.7730
vn -0.0000 0.7730 0.6344
vn -0.0000 0.8819 0.4714
vn -0.0000 0.9569 0.2903
vn -0.0000 0.9952 0.0980
vn -0.0000 0.9952 -0.0980
vn -0.0000 0.9569 -0.2903
vn 0.0000 0.8819 -0.4714
vn 0.0000 0.7730 -0.6344
vn 0.0000 0.6344 -0.7730
vn 0.0000 0.4714 -0.8819
vn 1.0000 -0.0000 0.0000
vn 0.0000 0.2903 -0.9569
vn 0.0000 0.0980 -0.9952
vn -1.0000 0.0000 0.0000
usemtl (null)
s off
f 83/1/1 1/2/1 2/3/1 85/4/1
f 85/4/2 2/3/2 3/5/2 87/6/2
f 87/6/3 3/5/3 4/7/3 88/8/3
f 5/9/4 90/10/4 88/8/4 4/7/4
f 6/11/5 139/12/5 90/10/5 5/9/5
f 139/12/6 6/11/6 7/13/6 145/14/6 144/15/6 140/16/6
f 145/14/7 7/13/7 8/17/7 146/18/7 148/19/7
f 146/18/8 8/17/8 9/20/8 141/21/8 142/22/8
f 141/21/9 9/20/9 10/23/9 136/24/9
f 136/24/10 10/23/10 11/25/10 155/26/10 137/27/10
f 155/26/11 11/25/11 12/28/11 157/29/11 156/30/11
f 157/29/12 12/28/12 13/31/12 160/32/12 158/33/12
f 160/32/13 13/31/13 14/34/13 163/35/13 162/36/13 161/37/13
f 163/35/14 14/34/14 15/38/14 165/39/14
f 165/39/15 15/38/15 16/40/15 167/41/15 166/42/15
f 167/41/16 16/40/16 18/43/16 17/44/16 171/45/16 170/46/16 169/47/16
f 17/44/17 18/43/17 20/48/17 19/49/17
f 19/49/18 20/48/18 22/50/18 21/51/18
f 21/51/19 22/50/19 24/52/19 23/53/19
f 23/53/20 24/52/20 26/54/20 25/55/20
f 25/55/21 26/54/21 28/56/21 27/57/21
f 27/57/22 28/56/22 30/58/22 29/59/22
f 29/59/23 30/58/23 32/60/23 31/61/23
f 32/60/24 34/62/24 33/63/24 75/64/24 31/61/24
f 33/63/25 34/62/25 35/65/25 92/66/25
f 92/66/26 35/65/26 36/67/26 93/68/26
f 93/68/27 36/67/27 37/69/27 94/70/27
f 94/70/28 37/69/28 38/71/28 84/72/28
f 84/72/29 38/71/29 39/73/29 86/74/29
f 86/74/30 39/73/30 40/75/30 89/76/30
f 37/77/31 36/78/31 35/79/31 34/80/31 32/81/31 30/82/31 28/83/31 26/84/31 24/85/31 22/86/31 20/87/31 18/88/31 16/89/31 15/90/31 14/91/31 13/92/31 12/93/31 11/94/31 10/95/31 9/96/31 8/97/31 7/98/31 6/99/31 5/100/31 4/101/31 3/102/31 2/103/31 1/104/31 41/105/31 40/106/31 39/107/31 38/108/31
f 89/76/32 40/75/32 41/109/32 91/110/32
f 91/110/33 41/109/33 1/111/33 83/112/33
f 17/113/34 19/114/34 21/115/34 23/116/34 25/117/34 27/118/34 29/119/34 31/120/34 75/121/34 138/122/34 171/123/34
f 85/124/35 43/125/35 42/126/35 83/127/35
f 87/128/36 44/129/36 43/125/36 85/124/36
f 88/130/37 45/131/37 44/129/37 87/128/37
f 90/132/38 46/133/38 45/131/38 88/130/38
f 149/134/39 47/135/39 46/133/39 90/132/39
f 151/136/40 48/137/40 47/135/40 149/134/40
f 153/138/41 49/139/41 48/137/41 151/136/41
f 143/140/42 50/141/42 49/139/42 153/138/42
f 51/142/43 50/141/43 143/140/43 147/143/43
f 150/144/44 52/145/44 51/142/44 147/143/44
f 152/146/45 53/147/45 52/145/45 150/144/45
f 154/148/46 54/149/46 53/147/46 152/146/46
f 159/150/47 55/151/47 54/149/47 154/148/47
f 164/152/48 56/153/48 55/151/48 159/150/48
f 168/154/49 57/155/49 56/153/49 164/152/49
f 59/156/50 58/157/50 57/155/50 168/154/50 172/158/50 173/159/50
f 58/157/51 59/156/51 61/160/51 60/161/51
f 60/161/52 61/160/52 63/162/52 62/163/52
f 62/163/53 63/162/53 65/164/53 64/165/53
f 64/165/54 65/164/54 67/166/54 66/167/54
f 66/167/55 67/166/55 69/168/55 68/169/55
f 68/169/56 69/168/56 71/170/56 70/171/56
f 70/171/57 71/170/57 73/172/57 72/173/57
f 75/174/58 33/175/58 74/176/58 72/173/58 73/172/58
f 92/177/59 76/178/59 74/176/59 33/175/59
f 93/179/60 77/180/60 76/178/60 92/177/60
f 94/181/61 78/182/61 77/180/61 93/179/61
f 84/183/62 79/184/62 78/182/62 94/181/62
f 86/185/63 80/186/63 79/184/63 84/183/63
f 89/187/64 81/188/64 80/186/64 86/185/64
f 75/189/65 73/190/65 71/191/65 69/192/65 67/193/65 65/194/65 63/195/65 61/196/65 59/197/65 173/198/65 138/199/65
f 91/200/66 82/201/66 81/188/66 89/187/66
f 83/202/67 42/203/67 82/201/67 91/200/67
f 82/204/68 42/205/68 43/206/68 44/207/68 45/208/68 46/209/68 47/210/68 48/211/68 49/212/68 50/213/68 51/214/68 52/215/68 53/216/68 54/217/68 55/218/68 56/219/68 57/220/68 58/221/68 60/222/68 62/223/68 64/224/68 66/225/68 68/226/68 70/227/68 72/228/68 74/229/68 76/230/68 77/231/68 78/232/68 79/233/68 80/234/68 81/235/68
f 143/236/69 95/237/69 96/238/69 147/239/69
f 147/239/70 96/238/70 97/240/70 150/241/70
f 150/241/71 97/240/71 98/242/71 152/243/71
f 152/243/72 98/242/72 99/244/72 154/245/72
f 154/245/73 99/244/73 100/246/73 159/247/73
f 159/247/74 100/246/74 101/248/74 164/249/74
f 164/249/75 101/248/75 102/250/75 168/251/75
f 168/251/76 102/250/76 104/252/76 103/253/76 172/254/76
f 103/253/77 104/252/77 106/255/77 105/256/77
f 105/256/78 106/255/78 108/257/78 107/258/78
f 107/258/79 108/257/79 110/259/79 109/260/79
f 109/260/80 110/259/80 112/261/80 111/262/80
f 111/262/81 112/261/81 114/263/81 113/264/81
f 113/264/82 114/263/82 116/265/82 115/266/82
f 115/266/83 116/265/83 118/267/83 117/268/83
f 117/268/84 118/267/84 120/269/84 119/270/84
f 170/46/85 119/270/85 120/269/85 121/271/85 169/272/85
f 167/273/86 169/272/86 121/271/86 122/274/86 166/275/86
f 165/276/87 166/275/87 122/274/87 123/277/87 162/278/87 163/279/87
f 123/277/88 124/280/88 161/281/88 162/278/88
f 160/282/89 161/281/89 124/280/89 125/283/89 158/284/89
f 157/285/90 158/284/90 125/283/90 126/286/90 156/287/90
f 155/288/91 156/287/91 126/286/91 127/289/91 137/290/91
f 136/291/92 137/290/92 127/289/92 128/292/92 142/293/92 141/294/92
f 142/293/93 128/292/93 129/295/93 148/296/93 146/297/93
f 148/296/94 129/295/94 130/298/94 144/299/94 145/300/94
f 144/299/95 130/298/95 131/301/95 140/302/95
f 140/303/96 131/301/96 132/304/96 90/305/96 139/306/96
f 132/304/97 133/307/97 149/308/97 90/305/97
f 133/307/98 134/309/98 151/310/98 149/308/98
f 120/311/99 118/312/99 116/313/99 114/314/99 112/315/99 110/316/99 108/317/99 106/318/99 104/319/99 102/320/99 101/321/99 100/322/99 99/323/99 98/324/99 97/325/99 96/326/99 95/327/99 135/328/99 134/329/99 133/330/99 132/331/99 131/332/99 130/333/99 129/334/99 128/335/99 127/336/99 126/337/99 125/338/99 124/339/99 123/340/99 122/341/99 121/342/99
f 134/309/100 135/343/100 153/344/100 151/310/100
f 153/344/101 135/343/101 95/345/101 143/346/101
f 173/347/102 172/348/102 103/349/102 105/350/102 107/351/102 109/352/102 111/353/102 113/354/102 115/355/102 117/356/102 119/357/102 170/358/102 171/123/102 138/359/102
